:SAMPLES-PER-SECOND 30
:FULLY-SPECIFIED
:DEGREES
148
root  -33.2268 39.5429 -12.495 165.965 -79.9349 -170.876
RightUpLeg  0.789668 -7.57211 -4.29844
RightLeg  25.5189 2.10216 0.866704
RightFoot  -18.1556 0.0645651 3.15523
RightToes  5.82063e-011 0 -3.6325e-017
Spine  14.2402 -0.170823 5.38263
Spine1  13.0305 1.81931 -4.37695
HEad  -25.5571 3.47397 1.28717
LeftShoulder1  8.61749 -13.0155 -45.477
LeftArm  -12.2195 22.9524 -30.8173
LeftForeArm  30.3647 -7.34641 -4.35356
LeftHand  -0.244104 0.0205437 5.32207
RightShoulder  5.26275 9.15086 35.6147
RightArm  16.6497 31.1749 49.3605
RightForeArm  4.27765 21.991 4.91594
RightHand  -0.898435 1.83344 -14.5654
LeftUpLeg  -13.475 9.77118 9.14337
LeftLeg  -4.42181 26.2555 -8.10979
LeftFoot  13.9245 0.350119 -1.95629
LeftToes  -1.33699e-010 -8.10125e-011 -3.35536e-011
149
root  -32.2391 39.6555 -12.7668 165.585 -80.3419 -170.358
RightUpLeg  -1.01917 -9.018 -3.58285
RightLeg  25.7553 2.61121 1.14361
RightFoot  -16.7833 -0.00047315 2.37148
RightToes  5.82063e-011 0 -3.6325e-017
Spine  14.3776 -0.212441 6.06697
Spine1  13.0628 1.72938 -4.03755
HEad  -24.7399 3.50154 1.22215
LeftShoulder1  8.61932 -13.0743 -45.3195
LeftArm  -12.6314 22.8565 -31.1853
LeftForeArm  29.0822 -7.34191 -4.27194
LeftHand  -0.244104 0.0205437 5.32207
RightShoulder  5.1439 9.06273 34.9734
RightArm  17.644 33.3772 49.8651
RightForeArm  5.38723 25.2998 5.09195
RightHand  -0.848639 1.63078 -14.1561
LeftUpLeg  -13.6873 9.23621 9.16766
LeftLeg  -5.31916 24.277 -7.9267
LeftFoot  11.8714 0.875796 -4.59124
LeftToes  -1.33699e-010 -8.10125e-011 -3.35536e-011
150
root  -31.3218 39.848 -13.0134 169.187 -81.5752 -174.032
RightUpLeg  -2.05812 -10.4205 -3.70356
RightLeg  25.1493 2.66355 1.13742
RightFoot  -15.1354 -0.0559443 1.3973
RightToes  5.82063e-011 0 -3.6325e-017
Spine  14.6261 -0.275596 5.50259
Spine1  12.9876 1.38633 -3.3189
HEad  -23.5422 3.49651 1.66102
LeftShoulder1  8.62853 -13.1392 -45.1862
LeftArm  -12.5018 21.6814 -31.0382
LeftForeArm  28.8536 -6.93603 -4.3108
LeftHand  -0.244104 0.0205437 5.32207
RightShoulder  5.08508 9.05151 34.5477
RightArm  16.4398 33.8753 49.4935
RightForeArm  7.32653 28.8634 5.86349
RightHand  -0.831476 1.4676 -14.1908
LeftUpLeg  -14.0444 8.63925 8.06031
LeftLeg  -3.50243 24.8316 -7.42226
LeftFoot  10.1677 0.632929 -3.64771
LeftToes  -1.33699e-010 -8.10125e-011 -3.35536e-011
151
root  -30.4847 40.0665 -13.2041 174.486 -83.1134 -179.579
RightUpLeg  -2.30703 -12.285 -4.20818
RightLeg  23.7276 2.92677 1.17305
RightFoot  -13.4099 -0.0795585 0.646853
RightToes  5.82063e-011 0 -3.6325e-017
Spine  14.7924 -0.385928 5.20764
Spine1  13.0067 1.11064 -2.85395
HEad  -22.3726 3.25947 2.13889
LeftShoulder1  8.70719 -13.2637 -45.2627
LeftArm  -11.7217 19.413 -30.267
LeftForeArm  29.6381 -6.44418 -4.54393
LeftHand  -0.244104 0.0205437 5.32207
RightShoulder  5.08163 9.08435 34.4161
RightArm  14.3079 32.8152 48.2625
RightForeArm  9.27996 32.6747 6.70379
RightHand  -0.790807 1.11735 -14.2039
LeftUpLeg  -14.288 9.12853 6.46768
LeftLeg  1.17992 25.4944 -5.90873
LeftFoot  8.5472 0.313376 -2.09161
LeftToes  -1.33699e-010 -8.10125e-011 -3.35536e-011
152
root  -29.7306 40.2731 -13.3194 -179.506 -84.4587 174.141
RightUpLeg  -2.14158 -14.453 -4.82386
RightLeg  21.8949 3.66357 1.44895
RightFoot  -11.7668 -0.0785236 0.363238
RightToes  5.82063e-011 0 -3.6325e-017
Spine  14.676 -0.486092 5.7813
Spine1  13.1177 1.12172 -2.97035
HEad  -21.3077 2.65817 2.35005
LeftShoulder1  8.77844 -13.3696 -45.3502
LeftArm  -11.0415 16.6307 -29.427
LeftForeArm  30.8301 -6.44027 -4.79243
LeftHand  -0.244104 0.0205437 5.32207
RightShoulder  5.0894 9.0838 34.4788
RightArm  12.0757 30.4939 46.5586
RightForeArm  10.8702 36.0585 7.52564
RightHand  -0.73731 0.730568 -14.0638
LeftUpLeg  -14.3837 14.087 3.74589
LeftLeg  7.55477 20.2782 -2.43494
LeftFoot  6.52784 0.254806 -1.88303
LeftToes  -1.33699e-010 -8.10125e-011 -3.35536e-011
